<?xml version="1.0" standalone="no"?>
<!DOCTYPE svg PUBLIC "-//W3C//DTD SVG 20010904//EN"
 "http://www.w3.org/TR/2001/REC-SVG-20010904/DTD/svg10.dtd">
<svg version="1.0" xmlns="http://www.w3.org/2000/svg"
 width="794.000000pt" height="794.000000pt" viewBox="0 0 794.000000 794.000000"
 preserveAspectRatio="xMidYMid meet">
<metadata>
Created by potrace 1.11, written by Peter Selinger 2001-2013
</metadata>
<g transform="translate(0.000000,794.000000) scale(0.100000,-0.100000)"
fill="#000000" stroke="none">
<path d="M89 7905 c-1 -16 -2 -101 -2 -189 l0 -158 29 -24 c16 -13 34 -28 40
-33 6 -4 134 -11 285 -14 151 -4 297 -9 324 -13 64 -8 205 -40 269 -60 66 -22
175 -86 219 -130 65 -62 136 -220 171 -378 53 -238 51 -107 51 -2851 0 -1408
-3 -2612 -7 -2675 -18 -283 -65 -484 -145 -622 -57 -97 -203 -190 -369 -233
-143 -37 -318 -53 -602 -54 l-184 -1 -41 -40 -41 -41 -1 -172 c0 -95 1 -180 3
-190 4 -17 116 -18 2651 -14 1455 2 2662 6 2681 9 19 4 64 9 100 13 119 11
154 16 305 41 83 13 195 36 250 49 55 14 109 27 119 30 46 11 218 71 296 103
407 166 745 410 968 697 34 44 66 85 70 90 22 27 116 195 156 278 75 158 136
353 167 537 14 86 18 338 6 454 -26 272 -118 508 -310 795 -115 172 -373 408
-602 549 -323 198 -585 291 -1147 407 -87 18 -114 34 -60 36 15 0 34 2 42 4 8
1 42 8 75 15 33 6 71 13 85 16 63 13 243 69 334 106 277 110 510 256 706 445
272 261 422 530 496 893 19 93 26 381 11 500 -53 438 -289 857 -657 1168 -103
87 -107 91 -199 151 -246 163 -471 272 -743 361 -193 62 -488 125 -688 145
-36 4 -72 8 -80 10 -76 15 -655 19 -2677 19 l-2353 1 -1 -30z m4016 -610 c61
-3 119 -8 130 -10 11 -2 38 -6 60 -9 170 -22 334 -61 490 -116 461 -164 785
-485 911 -901 60 -200 78 -523 40 -719 -99 -500 -421 -842 -968 -1024 -125
-42 -328 -89 -428 -100 -25 -3 -92 -10 -150 -17 -58 -6 -220 -11 -360 -12
-232 0 -298 3 -485 19 -67 6 -182 22 -205 29 -13 4 -15 168 -15 1399 1 767 3
1397 6 1400 3 3 23 8 45 10 21 3 59 8 84 11 97 12 117 15 175 21 33 4 62 8 65
10 3 1 84 6 180 9 96 4 176 8 177 9 3 3 129 -1 248 -9z m75 -3498 c14 -3 50
-8 80 -11 377 -42 754 -157 1015 -311 333 -196 582 -500 685 -835 94 -307 86
-686 -22 -970 -74 -197 -166 -339 -312 -485 -333 -332 -801 -494 -1441 -498
-242 -2 -366 7 -588 43 -164 26 -456 95 -467 111 -3 4 -5 657 -5 1451 l1 1443
104 22 c204 42 311 50 645 47 154 -1 291 -4 305 -7z"/>
</g>
</svg>
